<svg xmlns="http://www.w3.org/2000/svg" width="134" height="74" viewBox="0 0 134 74"><path fill="#2563eb" d="M29.20 40.38L29.20 40.38Q17.14 36.91 11.65 31.86Q6.15 26.81 6.15 19.38L6.15 19.38Q6.15 10.99 12.87 5.49Q19.58 0 30.32 0L30.32 0Q37.65 0 43.38 2.83Q49.12 5.66 52.27 10.64Q55.42 15.63 55.42 21.53L55.42 21.53L46.00 21.53Q46.00 15.09 41.89 11.40Q37.79 7.71 30.32 7.71L30.32 7.71Q23.39 7.71 19.51 10.77Q15.63 13.82 15.63 19.24L15.63 19.24Q15.63 23.58 19.31 26.59Q23.00 29.59 31.86 32.08Q40.72 34.57 45.73 37.57Q50.73 40.58 53.15 44.58Q55.57 48.58 55.57 54.00L55.57 54.00Q55.57 62.65 48.83 67.85Q42.09 73.05 30.81 73.05L30.81 73.05Q23.49 73.05 17.14 70.24Q10.79 67.43 7.35 62.55Q3.91 57.67 3.91 51.46L3.91 51.46L13.33 51.46Q13.33 57.91 18.09 61.65Q22.85 65.38 30.81 65.38L30.81 65.38Q38.23 65.38 42.19 62.35Q46.14 59.33 46.14 54.10Q46.14 48.88 42.48 46.02Q38.82 43.16 29.20 40.38ZM77.64 0.98L77.64 72.07L68.26 72.07L68.26 0.98L77.64 0.98ZM124.56 51.46L124.56 0.98L133.98 0.98L133.98 51.32Q133.98 61.52 127.86 67.29Q121.73 73.05 111.52 73.05L111.52 73.05Q100.93 73.05 95.02 67.63Q89.11 62.21 89.11 52.44L89.11 52.44L98.49 52.44Q98.49 58.54 101.83 61.96Q105.18 65.38 111.52 65.38L111.52 65.38Q117.33 65.38 120.92 61.72Q124.51 58.06 124.56 51.46L124.56 51.46Z"></path></svg>